<svg xmlns="http://www.w3.org/2000/svg" xmlns:svg="http://www.w3.org/2000/svg" id="svg2" width="1080" height="1920" version="1.1" viewBox="0 0 1080 1920"><metadata id="metadata7"/><g id="layer1" transform="translate(0,867.63784)"><rect id="rect11546" width="1080" height="1920" x="0" y="-867.638" style="fill:#000;fill-opacity:1;stroke:none;stroke-width:4.9477067;stroke-miterlimit:4;stroke-dasharray:none;stroke-opacity:1"/><rect id="rect3405" width="1081" height="145" x="0" y="-807.638" style="fill:#0288d1;fill-opacity:1;stroke:#ade2fe;stroke-opacity:1;stroke-width:4;stroke-miterlimit:4;stroke-dasharray:none"/><rect id="rect4228" width="1081" height="61" x="0" y="-867.638" style="fill:#0277bd;fill-opacity:1"/><rect id="rect4230" width="1081" height="565.714" x="0" y="-662.638" style="fill:#004a00;fill-opacity:1;stroke:#ade2fe;stroke-opacity:1;stroke-width:4;stroke-miterlimit:4;stroke-dasharray:none"/><path id="path4750" d="m 70.100471,-760.87886 4.25,4.2812 -14.5625,14.5625 34.75,0 0,6 -34.7188,0 14.5313,14.5625 -4.25,4.2187 -21.7813,-21.7812 z" style="color:#000;font-style:normal;font-variant:normal;font-weight:400;font-stretch:normal;font-size:medium;line-height:normal;font-family:Sans;-inkscape-font-specification:Sans;text-indent:0;text-align:start;text-decoration:none;text-decoration-line:none;letter-spacing:normal;word-spacing:normal;text-transform:none;direction:ltr;block-progression:tb;writing-mode:lr-tb;baseline-shift:baseline;text-anchor:start;display:inline;overflow:visible;visibility:visible;fill:#fff;fill-opacity:1;fill-rule:nonzero;stroke:none;stroke-width:2;marker:none;enable-background:accumulate"/><rect id="rect6981" width="1040.597" height="596.026" x="19.701" y="-97.651" style="fill:#4d4d4d;fill-opacity:1;stroke:#ade2fe;stroke-width:4;stroke-miterlimit:4;stroke-dasharray:none;stroke-opacity:1"/><rect id="rect6979" width="294.286" height="414.286" x="68.571" y="-319.066" style="fill:#fff;fill-opacity:1;stroke:#ade2fe;stroke-opacity:1;stroke-width:4;stroke-miterlimit:4;stroke-dasharray:none"/><rect id="rect6983" width="1040.152" height="421.682" x="19.924" y="501.593" style="fill:#121314;fill-opacity:1;stroke:#ade2fe;stroke-width:4.00767612;stroke-miterlimit:4;stroke-dasharray:none;stroke-opacity:1"/><rect id="rect6987" width="1077.143" height="128.571" x="1.429" y="923.791" style="fill:#000;fill-opacity:1"/><circle id="path7600" cx="540.771" cy="988.076" r="25.151" style="fill:#fff;fill-opacity:0;stroke:#fff;stroke-width:5;stroke-miterlimit:4;stroke-dasharray:none;stroke-opacity:1"/><path id="path11538" d="M 345.71427,683.79069 344.66112,998.68441 72.48173,840.3255 Z" transform="matrix(0.15628051,0,0,0.17058614,178.22278,844.56599)" style="fill:#fff;fill-opacity:0;stroke:#fff;stroke-width:27.63642311;stroke-miterlimit:4;stroke-dasharray:none;stroke-opacity:1"/><path id="path11540" d="m 898.45304,1014.6811 -53.2093,0 0,-53.20927 53.2093,0 z" style="fill:#fff;fill-opacity:0;stroke:#fff;stroke-width:5;stroke-miterlimit:4;stroke-dasharray:none;stroke-opacity:1"/><circle id="path11542" cx="931.429" cy="785.219" r="72.726" style="fill:#0288d1;fill-opacity:1;stroke:#0288d1;stroke-width:4.548;stroke-miterlimit:4;stroke-dasharray:none;stroke-opacity:1"/><path id="path11544" d="m 694.28571,598.07649 78.16116,46.3022 -79.17946,44.53845 z" transform="matrix(0.46414272,0,0,0.39929271,595.43536,527.95863)" style="fill:#fff;fill-opacity:1;stroke:#fff;stroke-width:5;stroke-miterlimit:4;stroke-dasharray:none;stroke-opacity:1"/><rect id="rect11548" width="595.064" height="72.207" x="411.04" y="-73.741" style="fill:#000;fill-opacity:1;stroke:#ade2fe;stroke-width:3.22206235;stroke-miterlimit:4;stroke-dasharray:none;stroke-opacity:1"/><text id="text11550" x="508.571" y="-27.638" xml:space="preserve" style="font-style:normal;font-weight:400;font-size:40px;line-height:125%;font-family:sans-serif;letter-spacing:0;word-spacing:0;fill:#fff;fill-opacity:1;stroke:none;stroke-width:1px;stroke-linecap:butt;stroke-linejoin:miter;stroke-opacity:1"><tspan id="tspan11552" x="508.571" y="-27.638">Title</tspan></text><rect id="rect11548-3" width="595.064" height="72.207" x="411.04" y="23.402" style="fill:#000;fill-opacity:1;stroke:#ade2fe;stroke-width:3.22206235;stroke-miterlimit:4;stroke-dasharray:none;stroke-opacity:1"/><text id="text11550-6" x="512.557" y="75.846" xml:space="preserve" style="font-style:normal;font-weight:400;font-size:40px;line-height:125%;font-family:sans-serif;letter-spacing:0;word-spacing:0;fill:#fff;fill-opacity:1;stroke:none;stroke-width:1px;stroke-linecap:butt;stroke-linejoin:miter;stroke-opacity:1"><tspan id="tspan11552-7" x="512.557" y="75.846">Undertitle</tspan></text><rect id="rect11548-3-5" width="939.973" height="71.402" x="65.728" y="148.09" style="fill:#000;fill-opacity:1;stroke:#ade2fe;stroke-width:4.02694607;stroke-miterlimit:4;stroke-dasharray:none;stroke-opacity:1"/><text id="text11550-6-3" x="433.924" y="195.846" xml:space="preserve" style="font-style:normal;font-weight:400;font-size:40px;line-height:125%;font-family:sans-serif;letter-spacing:0;word-spacing:0;fill:#fff;fill-opacity:1;stroke:none;stroke-width:1px;stroke-linecap:butt;stroke-linejoin:miter;stroke-opacity:1"><tspan id="tspan11552-7-5" x="433.924" y="195.846">Action buttons</tspan></text><text id="text11620" x="134.286" y="-159.066" xml:space="preserve" style="font-style:normal;font-weight:400;font-size:40px;line-height:125%;font-family:sans-serif;letter-spacing:0;word-spacing:0;fill:#000;fill-opacity:1;stroke:none;stroke-width:1px;stroke-linecap:butt;stroke-linejoin:miter;stroke-opacity:1"><tspan id="tspan11622" x="134.286" y="-159.066">Poster</tspan></text><text id="text11624" x="484.489" y="-439.981" xml:space="preserve" style="font-style:normal;font-weight:400;font-size:68.84462738px;line-height:125%;font-family:sans-serif;letter-spacing:0;word-spacing:0;fill:#fff;fill-opacity:1;stroke:none;stroke-width:1px;stroke-linecap:butt;stroke-linejoin:miter;stroke-opacity:1"><tspan id="tspan11626" x="484.489" y="-439.981">Art</tspan></text><text id="text11628" x="174.286" y="-727.638" xml:space="preserve" style="font-style:normal;font-weight:400;font-size:40px;line-height:125%;font-family:sans-serif;letter-spacing:0;word-spacing:0;fill:#fff;fill-opacity:1;stroke:none;stroke-width:1px;stroke-linecap:butt;stroke-linejoin:miter;stroke-opacity:1"><tspan id="tspan11630" x="174.286" y="-727.638">Title</tspan></text><path style="fill:#fff" id="path13804" d="m 1008.5714,-751.06642 c 3.3,0 6,-2.7 6,-6 0,-3.3 -2.7,-6 -6,-6 -3.3,0 -6,2.7 -6,6 0,3.3 2.7,6 6,6 z m 0,6 c -3.3,0 -6,2.7 -6,6 0,3.3 2.7,6 6,6 3.3,0 6,-2.7 6,-6 0,-3.3 -2.7,-6 -6,-6 z m 0,18 c -3.3,0 -6,2.7 -6,6 0,3.3 2.7,6 6,6 3.3,0 6,-2.7 6,-6 0,-3.3 -2.7,-6 -6,-6 z"/><path style="fill:#fff" id="path14002" d="m 913.81427,-754.07355 0,-14.85 -16.2,0 0,14.85 8.1,8.1 8.1,-8.1 z m -20.25,4.05 -14.85,0 0,16.2 14.85,0 8.1,-8.1 -8.1,-8.1 z m 4.05,20.25 0,14.85 16.2,0 0,-14.85 -8.1,-8.1 -8.1,8.1 z m 20.25,-20.25 -8.1,8.1 8.1,8.1 14.85,0 0,-16.2 -14.85,0 z"/><rect id="rect11548-6" width="421.28" height="72.708" x="65.074" y="258.865" style="fill:#000;fill-opacity:1;stroke:#ade2fe;stroke-width:2.72044969;stroke-miterlimit:4;stroke-dasharray:none;stroke-opacity:1"/><text id="text11550-2" x="103.986" y="310.131" xml:space="preserve" style="font-style:normal;font-weight:400;font-size:40px;line-height:125%;font-family:sans-serif;letter-spacing:0;word-spacing:0;fill:#fff;fill-opacity:1;stroke:none;stroke-width:1px;stroke-linecap:butt;stroke-linejoin:miter;stroke-opacity:1"><tspan id="tspan11552-9" x="103.986" y="310.131">Rating</tspan></text><rect id="rect11548-6-1" width="421.28" height="72.708" x="580.789" y="258.865" style="fill:#000;fill-opacity:1;stroke:#ade2fe;stroke-width:2.72044969;stroke-miterlimit:4;stroke-dasharray:none;stroke-opacity:1"/><text id="text11550-2-2" x="739.011" y="304.417" xml:space="preserve" style="font-style:normal;font-weight:400;font-size:40px;line-height:125%;font-family:sans-serif;letter-spacing:0;word-spacing:0;fill:#fff;fill-opacity:1;stroke:none;stroke-width:1px;stroke-linecap:butt;stroke-linejoin:miter;stroke-opacity:1"><tspan id="tspan11552-9-7" x="739.011" y="304.417">Details right</tspan></text><rect id="rect11548-3-5-0" width="939.973" height="71.402" x="61.442" y="368.09" style="fill:#000;fill-opacity:1;stroke:#ade2fe;stroke-width:4.02694607;stroke-miterlimit:4;stroke-dasharray:none;stroke-opacity:1"/><text id="text11550-6-3-9" x="83.537" y="415.846" xml:space="preserve" style="font-style:normal;font-weight:400;font-size:40px;line-height:125%;font-family:sans-serif;letter-spacing:0;word-spacing:0;fill:#fff;fill-opacity:1;stroke:none;stroke-width:1px;stroke-linecap:butt;stroke-linejoin:miter;stroke-opacity:1"><tspan id="tspan11552-7-5-3" x="83.537" y="415.846">Description</tspan></text><text id="text11550-6-3-6" x="412.108" y="704.417" xml:space="preserve" style="font-style:normal;font-weight:400;font-size:40px;line-height:125%;font-family:sans-serif;letter-spacing:0;word-spacing:0;fill:#fff;fill-opacity:1;stroke:none;stroke-width:1px;stroke-linecap:butt;stroke-linejoin:miter;stroke-opacity:1"><tspan id="tspan11552-7-5-0" x="412.108" y="704.417">Additional info</tspan></text></g></svg>